<?xml version="1.0" encoding="UTF-8"?>
<svg width="24px" height="24px" viewBox="0 0 24 24" version="1.1" xmlns="http://www.w3.org/2000/svg" xmlns:xlink="http://www.w3.org/1999/xlink">
    <!-- Generator: Sketch 51.3 (57544) - http://www.bohemiancoding.com/sketch -->
    <title>Shape</title>
    <desc>Created with Sketch.</desc>
    <defs></defs>
    <g id="app" stroke="none" stroke-width="1" fill="none" fill-rule="evenodd">
        <g id="Artboard" transform="translate(-374.000000, -60.000000)" fill="#000000" fill-rule="nonzero">
            <g id="qrcode-scan" transform="translate(358.000000, 44.000000)">
                <path d="M20,20 L26,20 L26,26 L20,26 L20,20 Z M36,20 L36,26 L30,26 L30,20 L36,20 Z M30,31 L32,31 L32,29 L30,29 L30,27 L32,27 L32,29 L34,29 L34,27 L36,27 L36,29 L34,29 L34,31 L36,31 L36,34 L34,34 L34,36 L32,36 L32,34 L29,34 L29,36 L27,36 L27,32 L30,32 L30,31 Z M32,31 L32,34 L34,34 L34,31 L32,31 Z M20,36 L20,30 L26,30 L26,36 L20,36 Z M22,22 L22,24 L24,24 L24,22 L22,22 Z M32,22 L32,24 L34,24 L34,22 L32,22 Z M22,32 L22,34 L24,34 L24,32 L22,32 Z M20,27 L22,27 L22,29 L20,29 L20,27 Z M25,27 L29,27 L29,31 L27,31 L27,29 L25,29 L25,27 Z M27,22 L29,22 L29,26 L27,26 L27,22 Z M18,18 L18,22 L16,22 L16,18 C16,16.8954305 16.8954305,16 18,16 L22,16 L22,18 L18,18 Z M38,16 C39.1045695,16 40,16.8954305 40,18 L40,22 L38,22 L38,18 L34,18 L34,16 L38,16 Z M18,34 L18,38 L22,38 L22,40 L18,40 C16.8954305,40 16,39.1045695 16,38 L16,34 L18,34 Z M38,38 L38,34 L40,34 L40,38 C40,39.1045695 39.1045695,40 38,40 L34,40 L34,38 L38,38 Z" id="Shape"></path>
            </g>
        </g>
    </g>
</svg>